<svg xmlns="http://www.w3.org/2000/svg" xml:space="preserve" viewBox="0 0 64 64" id="making-money">
  <path d="M59.71 37.66A3.7 3.7 0 0 0 57 36.5c-1.04 0-2 .43-2.7 1.18l-5.38 5.79a3.46 3.46 0 0 0-2.74-1.37H35.4c-1.74-.67-3.49-1.02-5.16-1.02-4.19 0-7.69 2.19-9.71 5.98-.16-.03-.32-.04-.48-.04-.71 0-1.39.27-1.87.75l-4.37 4.37c-.31.31-.31.8 0 1.11l10.52 10.52c.15.15.35.23.55.23s.41-.08.55-.23l4.37-4.37c.79-.79.97-1.95.56-2.91l1.67-1.27a2.78 2.78 0 0 1 1.66-.55h11.48c2.07 0 4.07-.62 5.78-1.8.77-.54 1.48-1.19 2.08-1.92l6.84-8.37c1.2-1.46 1.13-3.57-.16-4.92m-1.03 3.92-6.85 8.37c-.51.62-1.1 1.17-1.75 1.61-1.45 1-3.13 1.53-4.88 1.53H33.71c-.94 0-1.87.32-2.62.88l-1.69 1.28-7.48-7.48v-.01c1.75-3.24 4.76-5.1 8.35-5.1 1.52 0 3.09.32 4.69.95.09.03.19.05.29.05h10.93a1.9 1.9 0 1 1 0 3.8h-8.11a.781.781 0 0 0 0 1.56h8.11c1.91 0 3.47-1.56 3.47-3.47 0-.18-.02-.35-.05-.52l5.86-6.3c.41-.44.96-.67 1.57-.68.59 0 1.15.24 1.56.67.72.8.77 2.02.09 2.86M49.87 6.11l-9.6-4.97C39.44.7 38.54.39 37.6.2a10.071 10.071 0 0 0-6.01.63L21.05 5.38c-.35.15-.72.23-1.1.23-.22 0-.45-.03-.65-.08l-2.04-.51c0-.35-.07-.7-.22-1.04-.28-.64-.79-1.15-1.45-1.41L9.85.3a.767.767 0 0 0-1.02.44l-5.5 13.83c-.16.4.04.85.45 1.01l5.75 2.29c.31.12.63.19.97.19.54 0 1.04-.16 1.47-.44 2.09 1.65 4.47 2.55 6.92 2.55 3.09 0 6.09-1.36 8.7-3.91l9.9-4.26c.85-.37 1.52-1.05 1.85-1.91.06-.14.09-.29.13-.44l7.23 3.18c.48.21.98.32 1.49.32q.75 0 1.47-.3a3.73 3.73 0 0 0 2.02-2.14c.62-1.76-.15-3.74-1.81-4.6m.32 4.04c-.21.56-.62 1-1.18 1.24q-.405.18-.84.18c-.3 0-.58-.07-.85-.19l-7.88-3.46c-.04-.17-.09-.34-.16-.51a3.46 3.46 0 0 0-3.19-2.09c-.47 0-.93.09-1.37.28l-7.45 3.22c-.4.17-.58.63-.41 1.03.12.29.41.48.71.48.11 0 .22-.03.32-.07l7.45-3.21c.24-.11.49-.16.74-.16.76 0 1.45.46 1.75 1.15.2.47.21.98.02 1.46-.19.47-.54.84-1.01 1.04L26.8 14.87c-.09.04-.17.09-.25.17-2.31 2.31-4.97 3.53-7.7 3.53-2.1 0-4.13-.75-5.92-2.17v-.02l3.91-9.84 2.06.52c.34.08.68.12 1.03.12.58 0 1.18-.12 1.72-.36l10.53-4.54a8.36 8.36 0 0 1 5.09-.53c.78.16 1.55.42 2.26.78l9.6 4.98c.98.49 1.42 1.63 1.06 2.64M39.15 26.13c.52 0 .94.42.94.94 0 .43.35.78.78.78s.79-.35.79-.78c0-1.11-.73-2.04-1.72-2.37v-.38a.781.781 0 0 0-1.56 0v.38c-1 .33-1.72 1.26-1.72 2.37 0 1.38 1.13 2.51 2.51 2.51a.939.939 0 1 1 0 1.88c-.52 0-.94-.42-.94-.94a.781.781 0 0 0-1.56 0c0 1.11.73 2.04 1.72 2.37v.38a.781.781 0 0 0 1.56 0v-.38c1-.33 1.72-1.26 1.72-2.37 0-1.38-1.13-2.51-2.51-2.51-.52 0-.94-.42-.94-.94s.41-.94.93-.94"></path>
  <path d="M49.97 26.24h-1.31c-.23-.83-.55-1.63-.98-2.38l.92-.92c.35-.36.35-.93 0-1.28l-2.33-2.33a.9.9 0 0 0-.64-.27c-.24 0-.47.1-.63.27l-.92.92a9.7 9.7 0 0 0-2.38-.98v-1.31c0-.5-.41-.9-.9-.9h-3.29c-.5 0-.9.41-.9.9v1.31c-.83.22-1.63.55-2.38.98l-.92-.92a.93.93 0 0 0-.63-.27c-.21 0-.5.12-.64.27l-2.33 2.33c-.35.35-.35.92 0 1.28l.93.92c-.44.74-.76 1.54-.99 2.38h-1.3c-.51 0-.9.4-.9.9v3.29c0 .5.4.9.9.9h1.3c.23.83.55 1.62.99 2.37l-.93.93a.9.9 0 0 0 0 1.27l2.33 2.33c.18.17.4.27.64.27.18 0 .49-.11.63-.27l.92-.92c.75.44 1.55.76 2.38.98v1.31c0 .5.41.9.9.9h3.29c.5 0 .9-.41.9-.9v-1.31c.83-.22 1.63-.54 2.38-.98l.92.92c.17.17.4.27.63.27.25 0 .48-.1.64-.27l2.33-2.33a.9.9 0 0 0 0-1.27l-.92-.92c.43-.75.75-1.55.98-2.38h1.31c.5 0 .89-.41.89-.9v-3.29c0-.5-.4-.9-.89-.9m-10.82 9.91c-4.06 0-7.36-3.31-7.36-7.36 0-4.06 3.3-7.36 7.36-7.36s7.36 3.3 7.36 7.36c0 4.05-3.3 7.36-7.36 7.36"></path>
</svg>
